# xmcd
#
# Track frame offsets:
#	150
#	29491
#	59073
#	92228
#	126003
#	159263
#	188092
#	220986
#	261369
#	286165
#	318822
#	338317
#
# Disc length: 4724
#
# Revision: 1
# Processed by: cddbd v1.5.1PL0 Copyright (c) Steve Scherf et al.
# Submitted via: EasyCDDAExtractor 5.0.5.1
# Normalized: r0:DSETVAR1
#
DISCID=a812720c
DTITLE=Various Artist - DEE JAY MIX CLUB MAJ 2003 PART 3
DYEAR=2003
DGENRE=Acapella
TTITLE0=DJ FRANKIE JONES - 0LET THE BEAT.....
TTITLE1=NOVASPACE - PARADISE (RMX)
TTITLE2=DJ MATYS - ORGASM
TTITLE3=RAVE ALLSTARS - BITTE ANSCHNALLEN
TTITLE4=PAGANO - PACKET OF PEACE
TTITLE5=NEW TONE - WAITING FOR YOUR LOVE (RMX)
TTITLE6=LOVESTERN GALAKTIKA PROJECT - SUPERSTAR (RMX)
TTITLE7=PLANET FUNK - WHO SAID (RMX)
TTITLE8=KEN LASZLO - INSIDE MY MUSIC
TTITLE9=DISCO MONTEGO - BEAUTIFUL
TTITLE10=JURRASIC 5 FEAT MYA - THIN LINE
TTITLE11=ERASURE - MAKE ME SMILE(COME UP AND SEE ME )
EXTD=
EXTT0=
EXTT1=
EXTT2=
EXTT3=
EXTT4=
EXTT5=
EXTT6=
EXTT7=
EXTT8=
EXTT9=
EXTT10=
EXTT11=
PLAYORDER=
